<mxfile host="app.diagrams.net" modified="2024-03-26T14:01:16.766Z" agent="Mozilla/5.0 (Windows NT 10.0; Win64; x64) AppleWebKit/537.36 (KHTML, like Gecko) Chrome/120.0.0.0 YaBrowser/24.1.0.0 Safari/537.36" etag="BvhM8nM0RRaEfQzU6s_G" version="24.1.0" type="github">
  <diagram name="Страница — 1" id="PDdaQzykBOreic6AAFiH">
    <mxGraphModel dx="1434" dy="783" grid="1" gridSize="10" guides="1" tooltips="1" connect="1" arrows="1" fold="1" page="1" pageScale="1" pageWidth="827" pageHeight="1169" math="0" shadow="0">
      <root>
        <mxCell id="0" />
        <mxCell id="1" parent="0" />
        <mxCell id="KFAvze0ehvl6uoNBKwx2-3" value="" style="rounded=0;whiteSpace=wrap;html=1;" vertex="1" parent="1">
          <mxGeometry x="40" y="40" width="200" height="150" as="geometry" />
        </mxCell>
        <mxCell id="KFAvze0ehvl6uoNBKwx2-1" value="onboard-logic" style="rounded=0;whiteSpace=wrap;html=1;" vertex="1" parent="1">
          <mxGeometry x="65" y="60" width="150" height="30" as="geometry" />
        </mxCell>
        <mxCell id="KFAvze0ehvl6uoNBKwx2-2" value="onboard-communicated" style="rounded=0;whiteSpace=wrap;html=1;" vertex="1" parent="1">
          <mxGeometry x="65" y="130" width="150" height="30" as="geometry" />
        </mxCell>
        <mxCell id="KFAvze0ehvl6uoNBKwx2-5" value="" style="endArrow=classic;startArrow=classic;html=1;rounded=0;entryX=0.5;entryY=1;entryDx=0;entryDy=0;exitX=0.5;exitY=0;exitDx=0;exitDy=0;" edge="1" parent="1" source="KFAvze0ehvl6uoNBKwx2-2" target="KFAvze0ehvl6uoNBKwx2-1">
          <mxGeometry width="50" height="50" relative="1" as="geometry">
            <mxPoint x="360" y="230" as="sourcePoint" />
            <mxPoint x="410" y="180" as="targetPoint" />
          </mxGeometry>
        </mxCell>
        <mxCell id="KFAvze0ehvl6uoNBKwx2-6" value="" style="endArrow=classic;html=1;rounded=0;exitX=1;exitY=0.5;exitDx=0;exitDy=0;" edge="1" parent="1" source="KFAvze0ehvl6uoNBKwx2-2" target="KFAvze0ehvl6uoNBKwx2-7">
          <mxGeometry width="50" height="50" relative="1" as="geometry">
            <mxPoint x="360" y="230" as="sourcePoint" />
            <mxPoint x="310" y="145" as="targetPoint" />
          </mxGeometry>
        </mxCell>
        <mxCell id="KFAvze0ehvl6uoNBKwx2-9" value="" style="edgeStyle=orthogonalEdgeStyle;rounded=0;orthogonalLoop=1;jettySize=auto;html=1;" edge="1" parent="1" source="KFAvze0ehvl6uoNBKwx2-7" target="KFAvze0ehvl6uoNBKwx2-8">
          <mxGeometry relative="1" as="geometry" />
        </mxCell>
        <mxCell id="KFAvze0ehvl6uoNBKwx2-7" value="server" style="rounded=0;whiteSpace=wrap;html=1;" vertex="1" parent="1">
          <mxGeometry x="310" y="115" width="120" height="60" as="geometry" />
        </mxCell>
        <mxCell id="KFAvze0ehvl6uoNBKwx2-8" value="client" style="whiteSpace=wrap;html=1;rounded=0;" vertex="1" parent="1">
          <mxGeometry x="470" y="115" width="120" height="60" as="geometry" />
        </mxCell>
      </root>
    </mxGraphModel>
  </diagram>
</mxfile>
